<svg width="1804" height="1056" viewBox="0 0 1804 1056" fill="none" xmlns="http://www.w3.org/2000/svg">
<g clip-path="url(#clip0_4_5548)">
<path d="M0 1020.77H1656.12" stroke="#59221D" stroke-width="5" stroke-miterlimit="10" stroke-linecap="round"/>
<path d="M363.934 1054.38H1158.9" stroke="#59221D" stroke-width="5" stroke-miterlimit="10" stroke-linecap="round"/>
<path d="M877.405 655.113V541.397C877.405 525.066 883.892 509.405 895.441 497.857C906.989 486.31 922.652 479.823 938.984 479.823H1083.07C1094.85 479.823 1106.36 483.291 1116.18 489.796C1125.99 496.3 1133.67 505.552 1138.26 516.396L1196.95 655.113H877.405Z" fill="white" stroke="#59221D" stroke-width="5" stroke-miterlimit="10"/>
<path d="M1190.01 642.074H878.717V638.911H1188.67L1190.01 642.074Z" fill="#9EC2B1"/>
<path d="M1183.82 627.455H878.717V624.292H1182.48L1183.82 627.455Z" fill="#9EC2B1"/>
<path d="M1177.63 612.835H878.717V609.672H1176.29L1177.63 612.835Z" fill="#9EC2B1"/>
<path d="M1171.45 598.215H878.717V595.051H1170.11L1171.45 598.215Z" fill="#9EC2B1"/>
<path d="M1165.26 583.595H878.717V580.432H1163.92L1165.26 583.595Z" fill="#9EC2B1"/>
<path d="M1159.08 568.976H878.717V565.812H1157.74L1159.08 568.976Z" fill="#9EC2B1"/>
<path d="M1152.89 554.355H878.717V551.192H1151.55L1152.89 554.355Z" fill="#9EC2B1"/>
<path d="M1146.7 539.714H878.744C878.772 538.66 878.827 537.605 878.908 536.551H1145.35L1146.7 539.714Z" fill="#9EC2B1"/>
<path d="M1140.52 525.121H880.953C881.248 524.066 881.58 523.012 881.939 521.958H1139.18L1140.52 525.121Z" fill="#9EC2B1"/>
<path d="M1133.86 510.501H887.259C887.902 509.426 888.58 508.371 889.294 507.338H1131.91C1132.59 508.371 1133.25 509.42 1133.86 510.501Z" fill="#9EC2B1"/>
<path d="M1121.96 495.882H899.529C900.81 494.774 902.133 493.715 903.504 492.718H1118.1C1119.42 493.716 1120.71 494.771 1121.96 495.882Z" fill="#9EC2B1"/>
<path d="M1248.34 600.271L1151.07 656.256" stroke="#FFD100" stroke-width="5" stroke-miterlimit="10"/>
<path d="M1247.99 656.325C1250.6 650.17 1252.41 643.709 1253.38 637.097C1258.63 602.301 1237.32 573.246 1205.78 572.212C1174.25 571.179 1144.43 598.573 1139.19 633.37C1138 640.97 1138.14 648.719 1139.6 656.272L1247.99 656.325Z" stroke="#FFD100" stroke-width="5" stroke-miterlimit="10"/>
<path d="M1162.46 655.112H877.056C894.983 640.202 1071.73 570.931 1145.58 599.939C1188.2 616.688 1162.46 655.112 1162.46 655.112Z" fill="#A74602"/>
<path d="M1145.01 617.712C1160.86 623.938 1165.67 631.577 1167.45 640.709" stroke="#59221D" stroke-width="5" stroke-linecap="round" stroke-linejoin="round"/>
<path d="M1139.28 633.765C1155.13 639.992 1160.47 646.05 1162.25 655.181" stroke="#59221D" stroke-width="5" stroke-linecap="round" stroke-linejoin="round"/>
<path d="M1049.71 479.823V452.497L1010.52 443.581L987.119 479.823L1050.22 519.955L1049.71 479.823Z" fill="#A74602"/>
<path d="M987.119 479.823L1051.94 519.955" stroke="#59221D" stroke-width="5" stroke-miterlimit="10" stroke-linecap="round"/>
<path d="M1049.71 480.877V452.496L1012.24 444.156C1012.31 447.152 1013.09 450.089 1014.51 452.729C1015.92 455.37 1017.94 457.639 1020.4 459.355L1049.71 480.877Z" fill="#59221D"/>
<path d="M1056.06 418.612C1055.34 417.135 1054.22 415.89 1052.83 415.019C1051.44 414.148 1049.83 413.687 1048.18 413.688H1029.01C1028.67 413.688 1028.34 413.688 1028.01 413.73C1024.9 413.981 1021.99 415.393 1019.88 417.687C1017.76 419.981 1016.58 422.988 1016.58 426.109V430C1010.63 429.579 1005.93 424.433 1005.93 418.154C1005.93 411.595 1011.06 406.281 1017.38 406.281C1018.28 406.279 1019.17 406.389 1020.05 406.608C1022.09 402.754 1032.84 384.122 1044.26 394.17C1047.28 396.807 1044.6 402.174 1044.41 402.553C1044.93 401.979 1056.49 389.41 1066.71 399.153C1074.66 406.745 1062.37 415.075 1056.06 418.612Z" fill="#59221D"/>
<path d="M1056.94 422.445V445.19C1056.94 448.446 1055.65 451.569 1053.35 453.872C1051.05 456.175 1047.92 457.469 1044.66 457.469H1028.85C1025.59 457.469 1022.47 456.175 1020.16 453.872C1017.86 451.569 1016.57 448.446 1016.57 445.19V445.105H1007.88C1005.45 445.105 1003.12 444.139 1001.4 442.418C999.675 440.698 998.708 438.365 998.708 435.932V434.107C998.708 431.674 999.675 429.341 1001.4 427.621C1003.12 425.9 1005.45 424.934 1007.88 424.934H1009.31C1010.69 424.93 1012.05 425.226 1013.31 425.802C1014.56 426.379 1015.67 427.221 1016.57 428.271V426.11C1016.57 422.815 1017.88 419.656 1020.21 417.326C1022.53 414.997 1025.69 413.688 1028.99 413.688H1048.17C1049.32 413.685 1050.46 413.91 1051.52 414.349C1052.59 414.788 1053.56 415.432 1054.37 416.246C1055.19 417.059 1055.83 418.025 1056.28 419.089C1056.72 420.153 1056.94 421.294 1056.94 422.445V422.445Z" fill="#A74602"/>
<path d="M1054.63 425.271C1054.63 425.271 1042.14 423.162 1043.98 428.176C1045.83 433.19 1045.84 438.636 1044.56 441.325" stroke="#59221D" stroke-width="5" stroke-miterlimit="10" stroke-linecap="round"/>
<path d="M1032.97 435.947C1033.88 435.947 1034.62 434.937 1034.62 433.691C1034.62 432.444 1033.88 431.434 1032.97 431.434C1032.05 431.434 1031.31 432.444 1031.31 433.691C1031.31 434.937 1032.05 435.947 1032.97 435.947Z" fill="#59221D"/>
<path d="M1050.09 435.947C1051.01 435.947 1051.75 434.937 1051.75 433.691C1051.75 432.444 1051.01 431.434 1050.09 431.434C1049.18 431.434 1048.44 432.444 1048.44 433.691C1048.44 434.937 1049.18 435.947 1050.09 435.947Z" fill="#59221D"/>
<path d="M1043.95 446.692C1043.95 446.692 1037.81 448.274 1037.04 443.861" stroke="#59221D" stroke-width="5" stroke-miterlimit="10" stroke-linecap="round"/>
<path d="M1025.35 425.835C1028.64 424.302 1032.32 423.835 1035.89 424.501" stroke="#59221D" stroke-width="5" stroke-miterlimit="10" stroke-linecap="round"/>
<path d="M1013.74 436.559C1013.74 434.845 1013.05 433.201 1011.84 431.989C1010.63 430.776 1008.99 430.095 1007.27 430.095" stroke="#59221D" stroke-width="5" stroke-miterlimit="10" stroke-linecap="round"/>
<path d="M1018.41 424.407C1023.42 424.407 1027.49 420.342 1027.49 415.328C1027.49 410.314 1023.42 406.249 1018.41 406.249C1013.39 406.249 1009.33 410.314 1009.33 415.328C1009.33 420.342 1013.39 424.407 1018.41 424.407Z" fill="#59221D"/>
<path d="M1483.73 943.412C1483.73 985.463 1454.53 1019.55 1414.76 1019.55H1396.37C1434.74 1019.55 1465.84 985.463 1465.84 943.412C1465.84 901.361 1434.73 867.271 1396.37 867.271H1414.78C1454.53 867.271 1483.73 901.387 1483.73 943.412Z" fill="white" stroke="#59221D" stroke-width="5" stroke-miterlimit="10"/>
<path d="M1396.38 1019.55C1434.75 1019.55 1465.85 985.463 1465.85 943.411C1465.85 901.36 1434.75 867.271 1396.38 867.271C1358.01 867.271 1326.91 901.36 1326.91 943.411C1326.91 985.463 1358.01 1019.55 1396.38 1019.55Z" fill="#A74602" stroke="#59221D" stroke-width="5" stroke-miterlimit="10"/>
<path d="M1396.37 990.16C1419.63 990.16 1438.48 969.497 1438.48 944.008C1438.48 918.518 1419.63 897.855 1396.37 897.855C1373.12 897.855 1354.27 918.518 1354.27 944.008C1354.27 969.497 1373.12 990.16 1396.37 990.16Z" stroke="#59221D" stroke-width="5" stroke-miterlimit="10"/>
<path d="M1566.32 766.946L1338.39 655.123L1182.67 366.365L1176.92 355.688C1172.14 346.731 1165.01 339.242 1156.3 334.019C1147.59 328.797 1137.62 326.038 1127.47 326.038H323.303C310.556 326.037 298.191 330.38 288.244 338.35C278.298 346.321 271.364 357.442 268.588 369.881L145.961 919.523H1593.32V812.007C1593.31 802.757 1590.8 793.681 1586.05 785.746C1581.29 777.811 1574.47 771.314 1566.32 766.946V766.946ZM500.223 655.123H277.905C274.107 655.123 270.358 654.27 266.934 652.627C263.51 650.984 260.5 648.592 258.124 645.629C255.749 642.667 254.069 639.208 253.21 635.509C252.351 631.81 252.334 627.966 253.16 624.259L303.446 398.868C305.503 389.646 310.642 381.402 318.015 375.493C325.388 369.584 334.555 366.364 344.003 366.365H566.327C570.124 366.364 573.872 367.217 577.295 368.86C580.718 370.503 583.728 372.894 586.103 375.856C588.478 378.819 590.157 382.277 591.016 385.975C591.875 389.673 591.892 393.517 591.066 397.223L540.786 622.614C538.726 631.835 533.586 640.079 526.212 645.986C518.838 651.894 509.671 655.113 500.223 655.112V655.123ZM839.083 655.123H605.292C601.494 655.123 597.745 654.27 594.321 652.627C590.898 650.984 587.887 648.592 585.512 645.629C583.137 642.666 581.458 639.208 580.6 635.509C579.741 631.81 579.725 627.965 580.552 624.259L630.838 398.868C632.894 389.646 638.033 381.401 645.406 375.492C652.779 369.583 661.946 366.364 671.396 366.365H905.187C908.984 366.364 912.732 367.217 916.156 368.86C919.579 370.503 922.589 372.894 924.964 375.856C927.339 378.819 929.018 382.277 929.877 385.975C930.736 389.673 930.753 393.517 929.926 397.223L879.641 622.614C877.583 631.835 872.444 640.079 865.071 645.987C857.698 651.895 848.531 655.114 839.083 655.112V655.123ZM1286.92 655.123H956.153C951.602 655.123 947.11 654.101 943.007 652.132C938.905 650.162 935.297 647.297 932.452 643.746C929.606 640.196 927.594 636.051 926.566 631.618C925.537 627.186 925.518 622.579 926.51 618.138L975.43 398.868C977.486 389.646 982.625 381.401 989.998 375.492C997.371 369.583 1006.54 366.364 1015.99 366.365H1142.12C1149.18 366.365 1156.11 368.276 1162.17 371.896C1168.24 375.516 1173.21 380.71 1176.56 386.926L1304.93 624.971C1312.27 638.579 1302.41 655.112 1286.92 655.112V655.123Z" fill="#A1DEC9"/>
<path d="M1631.35 931.18V944.36C1631.35 947.452 1630.12 950.417 1627.94 952.603C1625.75 954.789 1622.79 956.017 1619.69 956.017H119.581C118.05 956.018 116.534 955.717 115.118 955.131C113.703 954.546 112.418 953.687 111.335 952.605C110.252 951.522 109.392 950.237 108.806 948.822C108.22 947.408 107.918 945.892 107.918 944.36V931.18C107.918 929.649 108.219 928.132 108.805 926.717C109.391 925.302 110.25 924.017 111.333 922.934C112.416 921.852 113.702 920.993 115.118 920.408C116.533 919.823 118.05 919.522 119.581 919.523H1619.69C1621.23 919.523 1622.74 919.824 1624.16 920.409C1625.57 920.995 1626.86 921.854 1627.94 922.936C1629.02 924.019 1629.88 925.304 1630.47 926.719C1631.05 928.133 1631.35 929.649 1631.35 931.18V931.18Z" fill="white" stroke="#59221D" stroke-width="5" stroke-miterlimit="10"/>
<path d="M1258.09 931.18V944.36C1258.09 947.452 1256.87 950.417 1254.68 952.603C1252.49 954.789 1249.53 956.017 1246.44 956.017H119.581C118.05 956.018 116.534 955.717 115.118 955.131C113.703 954.546 112.418 953.687 111.335 952.605C110.252 951.522 109.392 950.237 108.806 948.822C108.22 947.408 107.918 945.892 107.918 944.36V931.18C107.918 929.649 108.219 928.132 108.805 926.717C109.391 925.302 110.25 924.017 111.333 922.934C112.416 921.852 113.702 920.993 115.118 920.408C116.533 919.823 118.05 919.522 119.581 919.523H1246.44C1247.97 919.523 1249.48 919.824 1250.9 920.409C1252.31 920.995 1253.6 921.854 1254.68 922.936C1255.76 924.019 1256.62 925.304 1257.21 926.719C1257.79 928.133 1258.09 929.649 1258.09 931.18Z" fill="white" stroke="#59221D" stroke-width="5" stroke-miterlimit="10"/>
<path d="M1561.83 852.757C1579.13 852.757 1593.16 834.319 1593.16 811.575C1593.16 788.832 1579.13 770.394 1561.83 770.394C1544.52 770.394 1530.49 788.832 1530.49 811.575C1530.49 834.319 1544.52 852.757 1561.83 852.757Z" fill="white"/>
<path d="M1556.63 847.226C1574.56 847.226 1589.09 829.343 1589.09 807.284C1589.09 785.225 1574.56 767.342 1556.63 767.342C1538.71 767.342 1524.18 785.225 1524.18 807.284C1524.18 829.343 1538.71 847.226 1556.63 847.226Z" stroke="#59221D" stroke-width="5" stroke-miterlimit="10" stroke-linecap="round"/>
<path d="M1554.91 767.342H1545.74C1527.81 767.342 1513.28 785.225 1513.28 807.284C1513.28 829.343 1527.81 847.226 1545.74 847.226H1554.91" stroke="#59221D" stroke-width="5" stroke-miterlimit="10" stroke-linecap="round"/>
<path d="M1263.06 852.757C1280.37 852.757 1294.4 834.319 1294.4 811.575C1294.4 788.832 1280.37 770.394 1263.06 770.394C1245.75 770.394 1231.72 788.832 1231.72 811.575C1231.72 834.319 1245.75 852.757 1263.06 852.757Z" fill="white"/>
<path d="M1257.87 847.226C1275.79 847.226 1290.33 829.343 1290.33 807.284C1290.33 785.225 1275.79 767.342 1257.87 767.342C1239.94 767.342 1225.41 785.225 1225.41 807.284C1225.41 829.343 1239.94 847.226 1257.87 847.226Z" stroke="#59221D" stroke-width="5" stroke-miterlimit="10" stroke-linecap="round"/>
<path d="M1256.15 767.342H1246.97C1229.05 767.342 1214.52 785.225 1214.52 807.284C1214.52 829.343 1229.05 847.226 1246.97 847.226H1256.15" stroke="#59221D" stroke-width="5" stroke-miterlimit="10" stroke-linecap="round"/>
<path d="M1198.26 919.523V812.007C1198.26 802.757 1195.75 793.679 1191 785.742C1186.24 777.805 1179.43 771.305 1171.27 766.935L967.805 672.231" stroke="#59221D" stroke-width="5" stroke-miterlimit="10" stroke-linecap="round"/>
<path d="M499.442 896.358L618.42 363.523C619.11 360.44 620.828 357.684 623.293 355.709C625.758 353.734 628.823 352.657 631.982 352.657H938.183C940.764 352.658 943.312 353.24 945.639 354.357C947.966 355.475 950.012 357.101 951.626 359.115C953.24 361.129 954.382 363.479 954.966 365.994C955.551 368.508 955.563 371.121 955.003 373.64L838.286 896.342" stroke="#59221D" stroke-width="5" stroke-miterlimit="10" stroke-linecap="round"/>
<path d="M508.559 672.231H262.514" stroke="#59221D" stroke-width="5" stroke-miterlimit="10" stroke-linecap="round"/>
<path d="M275.526 352.657H1176.92" stroke="#59221D" stroke-width="5" stroke-miterlimit="10" stroke-linecap="round"/>
<path d="M1307.95 797.778H1502.09" stroke="#59221D" stroke-width="5" stroke-miterlimit="10" stroke-linecap="round"/>
<path d="M1003.51 672.231H1319.37" stroke="#59221D" stroke-width="5" stroke-miterlimit="10" stroke-linecap="round"/>
<path d="M196.979 891.897C217.358 844.342 262.666 811.233 315.283 811.233C369.729 811.233 416.339 846.656 435.616 896.879H890.581C908.445 844.289 955.694 811.233 1008.31 811.233C1062.76 811.233 1109.37 846.656 1128.64 896.879" stroke="#59221D" stroke-width="5" stroke-miterlimit="10" stroke-linecap="round"/>
<path d="M1472.88 816.04H1337.16C1331.68 816.04 1327.23 820.485 1327.23 825.968V882.201C1327.23 887.684 1331.68 892.129 1337.16 892.129H1472.88C1478.36 892.129 1482.8 887.684 1482.8 882.201V825.968C1482.8 820.485 1478.36 816.04 1472.88 816.04Z" stroke="white" stroke-width="6" stroke-miterlimit="10" stroke-linecap="round"/>
<path d="M1349.04 837.345H1460.99" stroke="#59221D" stroke-width="5" stroke-miterlimit="10" stroke-linecap="round"/>
<path d="M1349.04 855.118H1460.99" stroke="#59221D" stroke-width="5" stroke-miterlimit="10" stroke-linecap="round"/>
<path d="M1349.04 872.891H1460.99" stroke="#59221D" stroke-width="5" stroke-miterlimit="10" stroke-linecap="round"/>
<path d="M417.057 919.524H213.53C224.271 871.721 265.762 836.086 315.294 836.086C364.825 836.086 406.316 871.721 417.057 919.524Z" fill="#59221D"/>
<path d="M393.351 943.818C393.351 985.869 364.145 1019.96 324.373 1019.96H305.998C344.362 1019.96 375.466 985.869 375.466 943.818C375.466 901.767 344.357 867.677 305.998 867.677H324.389C364.145 867.677 393.351 901.767 393.351 943.818Z" fill="#A74602" stroke="#59221D" stroke-width="5" stroke-miterlimit="10"/>
<path d="M305.997 1019.96C344.363 1019.96 375.465 985.869 375.465 943.818C375.465 901.766 344.363 867.677 305.997 867.677C267.631 867.677 236.53 901.766 236.53 943.818C236.53 985.869 267.631 1019.96 305.997 1019.96Z" fill="white" stroke="#59221D" stroke-width="5" stroke-miterlimit="10"/>
<path d="M311.049 995.158C334.305 995.158 353.157 974.495 353.157 949.006C353.157 923.516 334.305 902.853 311.049 902.853C287.794 902.853 268.942 923.516 268.942 949.006C268.942 974.495 287.794 995.158 311.049 995.158Z" fill="#A74602"/>
<path d="M305.998 990.566C329.253 990.566 348.106 969.903 348.106 944.413C348.106 918.924 329.253 898.26 305.998 898.26C282.742 898.26 263.89 918.924 263.89 944.413C263.89 969.903 282.742 990.566 305.998 990.566Z" stroke="#59221D" stroke-width="5" stroke-miterlimit="10"/>
<path d="M305.882 951.241C309.668 951.241 312.736 948.172 312.736 944.387C312.736 940.602 309.668 937.533 305.882 937.533C302.096 937.533 299.027 940.602 299.027 944.387C299.027 948.172 302.096 951.241 305.882 951.241Z" stroke="#59221D" stroke-width="5" stroke-miterlimit="10"/>
<path d="M1110.08 919.523H906.557C917.298 871.72 958.789 836.086 1008.32 836.086C1057.85 836.086 1099.34 871.72 1110.08 919.523Z" fill="#59221D"/>
<path d="M1086.38 943.818C1086.38 985.869 1057.17 1019.96 1017.4 1019.96H999.024C1037.39 1019.96 1068.49 985.869 1068.49 943.818C1068.49 901.767 1037.38 867.677 999.024 867.677H1017.4C1057.17 867.677 1086.38 901.767 1086.38 943.818Z" fill="#A74602" stroke="#59221D" stroke-width="5" stroke-miterlimit="10"/>
<path d="M999.024 1019.96C1037.39 1019.96 1068.49 985.869 1068.49 943.818C1068.49 901.766 1037.39 867.677 999.024 867.677C960.658 867.677 929.557 901.766 929.557 943.818C929.557 985.869 960.658 1019.96 999.024 1019.96Z" fill="white" stroke="#59221D" stroke-width="5" stroke-miterlimit="10"/>
<path d="M1004.08 995.158C1027.33 995.158 1046.18 974.495 1046.18 949.006C1046.18 923.516 1027.33 902.853 1004.08 902.853C980.821 902.853 961.968 923.516 961.968 949.006C961.968 974.495 980.821 995.158 1004.08 995.158Z" fill="#A74602"/>
<path d="M999.025 990.566C1022.28 990.566 1041.13 969.903 1041.13 944.413C1041.13 918.924 1022.28 898.26 999.025 898.26C975.77 898.26 956.917 918.924 956.917 944.413C956.917 969.903 975.77 990.566 999.025 990.566Z" stroke="#59221D" stroke-width="5" stroke-miterlimit="10"/>
<path d="M998.909 951.241C1002.69 951.241 1005.76 948.172 1005.76 944.387C1005.76 940.602 1002.69 937.533 998.909 937.533C995.123 937.533 992.054 940.602 992.054 944.387C992.054 948.172 995.123 951.241 998.909 951.241Z" stroke="#59221D" stroke-width="5" stroke-miterlimit="10"/>
<path d="M997.479 236.089V309.446C997.479 311.624 997.05 313.78 996.217 315.792C995.384 317.803 994.162 319.631 992.622 321.171C991.082 322.71 989.254 323.932 987.243 324.765C985.231 325.598 983.074 326.027 980.897 326.027H446.383C444.205 326.027 442.049 325.598 440.038 324.765C438.026 323.932 436.198 322.71 434.659 321.17C433.119 319.631 431.899 317.803 431.066 315.791C430.233 313.779 429.805 311.623 429.805 309.446V236.084C429.805 233.907 430.233 231.751 431.066 229.739C431.899 227.728 433.12 225.901 434.659 224.361C436.199 222.822 438.026 221.601 440.038 220.768C442.05 219.935 444.206 219.507 446.383 219.508H980.891C985.29 219.508 989.508 221.255 992.619 224.364C995.73 227.473 997.478 231.691 997.479 236.089V236.089Z" fill="#9EC2B1"/>
<path d="M997.479 236.089V309.446C997.479 311.624 997.05 313.78 996.217 315.792C995.384 317.803 994.162 319.631 992.622 321.171C991.082 322.71 989.254 323.932 987.243 324.765C985.231 325.598 983.074 326.027 980.897 326.027H796.706C792.309 326.026 788.092 324.278 784.984 321.169C781.875 318.06 780.128 313.843 780.128 309.446V236.084C780.128 231.687 781.875 227.471 784.984 224.363C788.093 221.254 792.309 219.508 796.706 219.508H980.891C985.29 219.508 989.508 221.255 992.619 224.364C995.73 227.473 997.478 231.691 997.479 236.089V236.089Z" fill="#A74602"/>
<path d="M990.578 240.591V304.944C990.578 312.978 983.665 319.49 975.134 319.49H803.618C795.092 319.49 788.18 312.978 788.18 304.944V240.586C788.18 232.551 795.092 226.04 803.618 226.04H975.129C983.66 226.019 990.578 232.557 990.578 240.591Z" stroke="#9EC2B1" stroke-width="5" stroke-miterlimit="10" stroke-linecap="round"/>
<path d="M788.138 272.478H988.891" stroke="#9EC2B1" stroke-width="5" stroke-miterlimit="10" stroke-linecap="round"/>
<path d="M871.241 0H872.222C873.707 0 875.131 0.589905 876.181 1.63993C877.231 2.68996 877.821 4.11412 877.821 5.59908V38.8139H865.647V5.59908C865.647 4.11412 866.237 2.68996 867.287 1.63993C868.337 0.589905 869.761 0 871.246 0H871.241Z" stroke="#59221D" stroke-width="5" stroke-miterlimit="10" stroke-linecap="round"/>
<path d="M833.515 37.0897H909.209C913.152 37.0897 916.932 38.6556 919.72 41.4428C922.507 44.23 924.073 48.0103 924.073 51.952V219.508H818.651V51.952C818.651 48.0103 820.217 44.23 823.004 41.4428C825.792 38.6556 829.573 37.0897 833.515 37.0897V37.0897Z" fill="#59221D"/>
<path d="M924.068 51.952V54.8992L873.197 104.268V219.508H870.561V104.173L818.651 54.8517V51.952C818.651 51.7095 818.651 51.4723 818.651 51.235L870.561 100.541V37.0897H873.197V100.593L924.047 51.2456C924.063 51.4775 924.068 51.7148 924.068 51.952Z" fill="white"/>
<path d="M887.507 326.027V289.507" stroke="#59221D" stroke-width="5" stroke-miterlimit="10"/>
<path d="M353.704 326.027V289.507" stroke="#59221D" stroke-width="5" stroke-miterlimit="10"/>
<path d="M1100.22 326.027V289.507" stroke="#59221D" stroke-width="5" stroke-miterlimit="10"/>
<path d="M324.225 289.507H1120.19" stroke="#59221D" stroke-width="5" stroke-miterlimit="10" stroke-linecap="round"/>
<path d="M527.097 96.9978H798.219C803.635 96.9978 808.83 99.148 812.661 102.976C816.492 106.804 818.647 111.996 818.651 117.412V219.508H508.532V115.561C508.532 113.123 509.013 110.709 509.946 108.457C510.879 106.205 512.246 104.159 513.97 102.435C515.694 100.711 517.74 99.3437 519.993 98.4108C522.245 97.4779 524.659 96.9978 527.097 96.9978V96.9978Z" fill="black"/>
<path d="M817.507 219.508V117.269C817.507 112.201 815.495 107.341 811.913 103.755C808.331 100.17 803.472 98.1527 798.404 98.1471H775.863C770.508 98.1471 765.373 100.274 761.587 104.06C757.801 107.846 755.674 112.98 755.674 118.334V219.508" stroke="white" stroke-width="5" stroke-miterlimit="10"/>
<path d="M525.853 96.9978V219.508" stroke="white" stroke-width="5" stroke-miterlimit="10"/>
<path d="M543.627 96.9978V219.508" stroke="white" stroke-width="5" stroke-miterlimit="10"/>
<path d="M561.401 96.9978V219.508" stroke="white" stroke-width="5" stroke-miterlimit="10"/>
<path d="M579.176 96.9978V219.508" stroke="white" stroke-width="5" stroke-miterlimit="10"/>
<path d="M596.95 96.9978V219.508" stroke="white" stroke-width="5" stroke-miterlimit="10"/>
<path d="M614.724 96.9978V219.508" stroke="white" stroke-width="5" stroke-miterlimit="10"/>
<path d="M632.498 96.9978V219.508" stroke="white" stroke-width="5" stroke-miterlimit="10"/>
<path d="M650.273 96.9978V219.508" stroke="white" stroke-width="5" stroke-miterlimit="10"/>
<path d="M668.047 96.9978V219.508" stroke="white" stroke-width="5" stroke-miterlimit="10"/>
<path d="M685.821 96.9978V219.508" stroke="white" stroke-width="5" stroke-miterlimit="10"/>
<path d="M703.595 96.9978V219.508" stroke="white" stroke-width="5" stroke-miterlimit="10"/>
<path d="M721.37 96.9978V219.508" stroke="white" stroke-width="5" stroke-miterlimit="10"/>
<path d="M739.144 96.9978V219.508" stroke="white" stroke-width="5" stroke-miterlimit="10"/>
<path d="M508.532 202.969H754.224" stroke="white" stroke-width="5" stroke-miterlimit="10"/>
<path d="M508.532 185.196H754.224" stroke="white" stroke-width="5" stroke-miterlimit="10"/>
<path d="M508.532 167.424H754.224" stroke="white" stroke-width="5" stroke-miterlimit="10"/>
<path d="M508.532 149.651H754.224" stroke="white" stroke-width="5" stroke-miterlimit="10"/>
<path d="M508.532 131.878H754.224" stroke="white" stroke-width="5" stroke-miterlimit="10"/>
<path d="M508.532 114.106H755.943" stroke="white" stroke-width="5" stroke-miterlimit="10"/>
<path d="M786.577 98.1471V219.508" stroke="white" stroke-width="5" stroke-miterlimit="10"/>
<path d="M687.54 73.7212H689.122C691.541 73.7212 693.861 74.6821 695.572 76.3926C697.283 78.1031 698.244 80.4231 698.244 82.8421V84.4237C698.244 86.8427 697.283 89.1626 695.572 90.8731C693.861 92.5836 691.541 93.5446 689.122 93.5446H678.402V82.8421C678.402 81.643 678.639 80.4556 679.098 79.348C679.557 78.2404 680.231 77.2342 681.079 76.387C681.928 75.5399 682.936 74.8684 684.044 74.4109C685.153 73.9535 686.341 73.7191 687.54 73.7212Z" stroke="#59221D" stroke-width="5" stroke-miterlimit="10" stroke-linecap="round"/>
<path d="M664.831 65.6072H666.85C669.917 65.6072 672.858 66.8253 675.026 68.9936C677.195 71.1619 678.413 74.1027 678.413 77.1691V93.5604H664.831C661.764 93.5604 658.823 92.3422 656.655 90.1739C654.486 88.0057 653.268 85.0648 653.268 81.9984V77.1691C653.268 74.1027 654.486 71.1619 656.655 68.9936C658.823 66.8253 661.764 65.6072 664.831 65.6072V65.6072Z" stroke="#59221D" stroke-width="5" stroke-miterlimit="10" stroke-linecap="round"/>
<path d="M678.418 93.5604C672.096 93.5599 665.941 95.5908 660.861 99.3536C655.781 103.116 652.045 108.412 650.204 114.459L597.972 289.496" stroke="#59221D" stroke-width="5" stroke-miterlimit="10" stroke-linecap="round"/>
<path d="M1355.82 598.489C1369.15 598.489 1379.97 583.486 1379.97 564.979C1379.97 546.472 1369.15 531.469 1355.82 531.469C1342.48 531.469 1331.67 546.472 1331.67 564.979C1331.67 583.486 1342.48 598.489 1355.82 598.489Z" fill="black"/>
<path d="M1349.94 595.389C1363.28 595.389 1374.09 580.386 1374.09 561.879C1374.09 543.371 1363.28 528.368 1349.94 528.368C1336.61 528.368 1325.79 543.371 1325.79 561.879C1325.79 580.386 1336.61 595.389 1349.94 595.389Z" stroke="#59221D" stroke-width="5" stroke-miterlimit="10" stroke-linecap="round"/>
<path d="M1329.43 636.654C1329.43 610.337 1339.2 584.958 1356.85 565.427" stroke="#59221D" stroke-width="5" stroke-miterlimit="10" stroke-linecap="round"/>
<path d="M662.31 506.115L791.955 484.568L829.629 578.26C832.371 585.079 833.097 592.542 831.72 599.763C830.344 606.983 826.922 613.655 821.862 618.987L815.382 625.841V655.139H660.365L662.31 506.115Z" fill="#59221D"/>
<path d="M821.862 618.987C826.921 613.656 830.343 606.983 831.72 599.763C833.097 592.543 832.371 585.079 829.628 578.26L791.955 484.568C801.034 483.059 810.359 484.53 818.532 488.761C826.706 492.992 833.291 499.755 837.3 508.039L877.937 592.025C892.057 621.212 870.792 655.113 838.391 655.113H815.381V625.815L821.862 618.987Z" fill="#A74602"/>
<path d="M658.767 506.616C651.268 507.887 644.184 510.941 638.112 515.52C632.039 520.099 627.156 526.07 623.872 532.929L586.9 610.193C557.505 671.62 623.424 735.002 683.659 703.232L774.877 655.112H874.067C876.222 655.112 878.288 654.256 879.812 652.733C881.336 651.209 882.192 649.143 882.192 646.988V646.988C882.192 645.483 881.773 644.008 880.984 642.728C880.194 641.447 879.065 640.41 877.721 639.733L833.267 617.332C817.778 609.529 800.677 605.465 783.334 605.464H687.577L688.779 532.386C688.841 528.611 688.07 524.868 686.522 521.424C684.973 517.98 682.685 514.919 679.821 512.459C676.956 509.999 673.584 508.2 669.945 507.19C666.306 506.18 662.49 505.984 658.767 506.616V506.616Z" fill="#A74602"/>
<path d="M874.066 653.394C878.553 653.394 882.192 651.474 882.192 646.988C882.191 645.483 881.773 644.008 880.984 642.727C880.194 641.447 879.064 640.41 877.72 639.733L833.266 617.332C817.778 609.529 800.677 605.465 783.334 605.464H702.635C687.895 605.464 673.425 609.413 660.728 616.9" stroke="#59221D" stroke-width="5" stroke-miterlimit="10" stroke-linecap="round"/>
<path d="M763.43 640.202C763.43 643.698 764.818 647.05 767.291 649.522C769.763 651.994 773.115 653.383 776.612 653.383" stroke="#59221D" stroke-width="5" stroke-miterlimit="10" stroke-linecap="round"/>
<path d="M827.43 630.692L860.648 644.294C862.453 645.034 863.996 646.295 865.083 647.916C866.169 649.536 866.749 651.443 866.748 653.394" stroke="#59221D" stroke-width="5" stroke-miterlimit="10" stroke-linecap="round"/>
<path d="M805.427 633.655L831.4 644.294C833.205 645.034 834.749 646.295 835.835 647.915C836.921 649.536 837.501 651.443 837.5 653.394" stroke="#59221D" stroke-width="5" stroke-miterlimit="10" stroke-linecap="round"/>
<path d="M793.837 484.299L726.763 495.428C720.393 522.316 696.482 538.903 670.055 529.792C612.583 509.979 711.34 430.406 728.292 415.618C746.42 399.801 770.473 399.348 776.036 413.551C781.188 426.663 770.5 432.531 762.854 433.617C763.698 439.68 769.567 475.726 793.837 484.299Z" fill="black"/>
<path d="M757.882 463.025V494.3C757.882 498.962 756.03 503.433 752.733 506.729C749.437 510.026 744.965 511.877 740.303 511.877V511.877C735.641 511.877 731.169 510.026 727.873 506.729C724.576 503.433 722.724 498.962 722.724 494.3V447.768L757.882 463.025Z" fill="#A74602"/>
<path d="M722.724 447.768L757.882 463.025V490.288L736.575 476.928C732.246 473.401 728.757 468.954 726.361 463.91C723.965 458.866 722.723 453.352 722.724 447.768V447.768Z" fill="#59221D"/>
<path d="M761.579 433.585V454.769C761.579 456.581 761.222 458.375 760.529 460.049C759.835 461.723 758.819 463.244 757.538 464.525C756.256 465.806 754.735 466.823 753.061 467.516C751.387 468.209 749.592 468.566 747.78 468.566H744.585C740.852 468.568 737.181 467.614 733.921 465.794C730.662 463.974 727.923 461.349 725.967 458.17H716.403C714.004 458.112 711.723 457.119 710.047 455.402C708.371 453.686 707.432 451.382 707.432 448.983C707.432 446.584 708.371 444.28 710.047 442.563C711.723 440.847 714.004 439.853 716.403 439.796H719.271C720.627 439.792 721.949 440.214 723.051 441.003L738.98 422.793C749.104 434.207 761.579 433.585 761.579 433.585Z" fill="#A74602"/>
<path d="M721.206 450.309C721.206 448.737 720.581 447.23 719.47 446.119C718.358 445.007 716.851 444.383 715.279 444.383" stroke="#59221D" stroke-width="5" stroke-miterlimit="10" stroke-linecap="round"/>
<path d="M760.44 436.321C760.44 436.321 755.02 435.726 751.477 439.754C749.199 442.347 749.104 448.716 752.051 452.902" stroke="#59221D" stroke-width="5" stroke-miterlimit="10" stroke-linecap="round"/>
<path d="M740.472 447.525C741.386 447.525 742.127 446.515 742.127 445.268C742.127 444.022 741.386 443.012 740.472 443.012C739.558 443.012 738.816 444.022 738.816 445.268C738.816 446.515 739.558 447.525 740.472 447.525Z" fill="#59221D"/>
<path d="M755.879 447.525C756.793 447.525 757.535 446.515 757.535 445.268C757.535 444.022 756.793 443.012 755.879 443.012C754.965 443.012 754.223 444.022 754.223 445.268C754.223 446.515 754.965 447.525 755.879 447.525Z" fill="#59221D"/>
<path d="M751.477 458.27C751.477 458.27 745.334 459.851 744.569 455.439" stroke="#59221D" stroke-width="5" stroke-miterlimit="10" stroke-linecap="round"/>
<path d="M732.853 438.547C732.853 438.547 737.514 434.93 743.399 436.069" stroke="#59221D" stroke-width="5" stroke-miterlimit="10" stroke-linecap="round"/>
<path d="M564.165 517.805L540.527 623.544C538.597 632.177 533.884 639.936 527.112 645.628C520.34 651.32 511.886 654.629 503.049 655.046C502.422 655.046 501.784 655.093 501.146 655.093H277.14C273.387 655.093 269.682 654.248 266.3 652.622C262.918 650.995 259.945 648.628 257.602 645.696C255.26 642.764 253.607 639.342 252.767 635.685C251.926 632.027 251.92 628.227 252.749 624.567L265.335 569.014C268.624 554.475 276.76 541.486 288.406 532.181C300.052 522.875 314.517 517.806 329.424 517.805H564.165Z" fill="#9EC2B1"/>
<path d="M299.159 655.112C316.559 622.53 355.672 599.828 401.112 599.828C446.552 599.828 483.893 622.499 501.33 655.065L299.159 655.112Z" fill="white"/>
<path d="M444.828 607.431L431.699 655.081V655.112H429.005V655.081L430.423 603.134C435.31 604.262 440.121 605.697 444.828 607.431V607.431Z" fill="#59221D"/>
<path d="M501.583 577.88V655.112H431.578L453.138 577.88C453.138 582.33 463.894 585.936 477.171 585.936C490.447 585.936 499.996 582.034 501.583 577.88Z" fill="white"/>
<path d="M501.583 577.88C500.001 582.035 490.442 585.936 477.171 585.936C463.899 585.936 453.138 582.33 453.138 577.88V544.665C453.138 544.665 456.829 543.236 461.379 548.851C465.929 554.466 469.288 552.468 471.365 547.797C473.691 542.62 482.217 517.745 494.196 517.745C503.935 517.745 502.632 537.036 502.074 542.704C502.067 542.794 502.089 542.884 502.138 542.961C502.186 543.038 502.258 543.097 502.343 543.129C502.427 543.162 502.52 543.166 502.608 543.142C502.695 543.117 502.772 543.065 502.828 542.994C504.546 540.743 508.227 536.256 510.083 536.546C512.556 536.978 502.342 575.903 501.583 577.88Z" fill="#A74602"/>
<path d="M490.98 519.775L482.211 547.348" stroke="#59221D" stroke-width="5" stroke-miterlimit="10" stroke-linecap="round"/>
<path d="M497.861 521.541L489.667 548.498" stroke="#59221D" stroke-width="5" stroke-miterlimit="10" stroke-linecap="round"/>
<path d="M502.348 543.131L500.254 549.442" stroke="#59221D" stroke-width="5" stroke-miterlimit="10" stroke-linecap="round"/>
<path d="M380.432 588.023H417.373V599.854C417.373 604.425 415.557 608.809 412.324 612.041C409.092 615.273 404.708 617.089 400.136 617.089H397.679C393.108 617.089 388.724 615.273 385.491 612.041C382.259 608.809 380.443 604.425 380.443 599.854V588.023H380.432Z" fill="#A74602"/>
<path d="M380.432 588.023H417.373V599.975C417.373 602.519 416.806 605.03 415.711 607.326C414.616 609.622 413.022 611.644 411.046 613.245L391.378 604.731C388.124 603.316 385.354 600.98 383.409 598.012C381.464 595.044 380.43 591.572 380.432 588.023V588.023Z" fill="#59221D"/>
<path d="M380.485 578.386C380.485 578.829 380.661 579.255 380.974 579.569C381.288 579.884 381.713 580.061 382.156 580.062H383.058C383.503 580.062 383.929 579.886 384.244 579.571C384.558 579.257 384.735 578.83 384.735 578.386V576.419C384.735 574.031 385.205 571.666 386.12 569.459C387.034 567.253 388.374 565.248 390.063 563.559C391.752 561.871 393.758 560.532 395.965 559.618C398.172 558.705 400.537 558.235 402.926 558.235H423.062L424.327 581.491C424.447 583.691 424.117 585.893 423.357 587.962C422.598 590.03 421.424 591.922 419.909 593.522C418.394 595.122 416.568 596.397 414.544 597.268C412.52 598.139 410.339 598.588 408.135 598.589H396.92C394.168 598.589 391.461 597.889 389.054 596.555C386.647 595.22 384.62 593.295 383.164 590.96H372.829C371.655 590.96 370.493 590.728 369.409 590.276C368.326 589.825 367.342 589.164 366.515 588.331C365.688 587.497 365.034 586.509 364.591 585.422C364.148 584.335 363.925 583.171 363.934 581.997C363.991 579.622 364.98 577.364 366.688 575.711C368.395 574.059 370.685 573.145 373.061 573.166H375.26C376.643 573.166 377.97 573.714 378.949 574.691C379.928 575.667 380.481 576.992 380.485 578.375V578.386Z" fill="#A74602"/>
<path d="M384.735 578.386C384.735 578.83 384.558 579.257 384.244 579.571C383.929 579.886 383.503 580.062 383.058 580.062H382.156C381.713 580.061 381.287 579.884 380.974 579.569C380.661 579.255 380.485 578.829 380.485 578.386C380.483 577.005 379.934 575.681 378.958 574.704C377.981 573.727 376.657 573.178 375.275 573.177L374.073 564.562C374.073 557.244 379.32 551.313 385.789 551.313C386.997 551.313 388.196 551.522 389.332 551.93C390.424 545.788 395.544 541.132 401.697 541.132C404.506 541.135 407.225 542.116 409.39 543.906C410.281 540.959 412.094 538.376 414.561 536.536C417.028 534.695 420.021 533.693 423.099 533.677C431.008 533.677 437.451 540.247 437.451 548.355C437.451 556.464 431.024 563.033 423.099 563.033C421.091 563.031 419.106 562.602 417.276 561.775C415.446 560.948 413.813 559.742 412.485 558.235H402.952C398.263 558.231 393.754 560.039 390.367 563.281C386.98 566.524 384.977 570.949 384.777 575.634L384.735 578.386Z" fill="black"/>
<path d="M376.995 581.291C376.808 580.195 376.24 579.2 375.391 578.482C374.542 577.764 373.467 577.37 372.355 577.368" stroke="#59221D" stroke-width="5" stroke-miterlimit="10" stroke-linecap="round"/>
<path d="M421.66 568.442C421.66 568.442 416.551 566.244 412.744 570.773C410.519 573.409 409.443 580.062 411.6 583.347" stroke="#59221D" stroke-width="5" stroke-miterlimit="10" stroke-linecap="round"/>
<path d="M401.149 579.119C402.063 579.119 402.805 578.108 402.805 576.862C402.805 575.616 402.063 574.605 401.149 574.605C400.235 574.605 399.493 575.616 399.493 576.862C399.493 578.108 400.235 579.119 401.149 579.119Z" fill="#59221D"/>
<path d="M416.551 579.119C417.465 579.119 418.206 578.108 418.206 576.862C418.206 575.616 417.465 574.605 416.551 574.605C415.636 574.605 414.895 575.616 414.895 576.862C414.895 578.108 415.636 579.119 416.551 579.119Z" fill="#59221D"/>
<path d="M410.982 589.273C410.982 589.273 405.262 589.842 404.075 587.011" stroke="#59221D" stroke-width="5" stroke-miterlimit="10" stroke-linecap="round"/>
<path d="M394.099 571.284C394.099 571.284 396.509 567.636 402.942 567.662" stroke="#59221D" stroke-width="5" stroke-miterlimit="10" stroke-linecap="round"/>
</g>
<defs>
<clipPath id="clip0_4_5548">
<rect width="1804" height="1056" fill="white"/>
</clipPath>
</defs>
</svg>
