<svg width="125" height="125" viewBox="0 0 125 125" fill="none" xmlns="http://www.w3.org/2000/svg">
<path d="M62.5003 109.375C55.9219 103.764 49.8242 97.6121 44.2712 90.9844C35.9378 81.0312 26.042 66.2083 26.042 52.0833C26.0346 37.331 34.9183 24.0281 48.5476 18.3823C62.1768 12.7365 77.8653 15.8606 88.292 26.2969C95.1485 33.1229 98.9895 42.4083 98.9588 52.0833C98.9588 66.2083 89.0628 81.0312 80.7295 90.9844C75.1764 97.6121 69.0788 103.764 62.5003 109.375ZM62.5003 36.4583C56.9181 36.4583 51.7598 39.4364 48.9687 44.2708C46.1775 49.1052 46.1775 55.0614 48.9687 59.8958C51.7598 64.7302 56.9181 67.7083 62.5003 67.7083C71.1298 67.7083 78.1253 60.7128 78.1253 52.0833C78.1253 43.4539 71.1298 36.4583 62.5003 36.4583Z" fill="#9EC2B1"/>
</svg>
