<svg width="371" height="77" viewBox="0 0 371 77" fill="none" xmlns="http://www.w3.org/2000/svg">
<path d="M13.8182 62.6591C18.9773 62.6591 22.3182 60.4091 24.0227 57.1591H24.2955V62H33.4773V38.4545C33.4773 30.1364 26.4318 26.6364 18.6591 26.6364C10.2955 26.6364 4.79545 30.6364 3.45455 37L12.4091 37.7273C13.0682 35.4091 15.1364 33.7045 18.6136 33.7045C21.9091 33.7045 23.7955 35.3636 23.7955 38.2273V38.3636C23.7955 40.6136 21.4091 40.9091 15.3409 41.5C8.43182 42.1364 2.22727 44.4545 2.22727 52.25C2.22727 59.1591 7.15909 62.6591 13.8182 62.6591ZM16.5909 55.9773C13.6136 55.9773 11.4773 54.5909 11.4773 51.9318C11.4773 49.2045 13.7273 47.8636 17.1364 47.3864C19.25 47.0909 22.7045 46.5909 23.8636 45.8182V49.5227C23.8636 53.1818 20.8409 55.9773 16.5909 55.9773ZM50.6705 15.4545H40.9886V62H50.6705V15.4545ZM74.1989 62.6818C84.7898 62.6818 91.3807 55.4318 91.3807 44.6818C91.3807 33.8636 84.7898 26.6364 74.1989 26.6364C63.608 26.6364 57.017 33.8636 57.017 44.6818C57.017 55.4318 63.608 62.6818 74.1989 62.6818ZM74.2443 55.1818C69.358 55.1818 66.858 50.7045 66.858 44.6136C66.858 38.5227 69.358 34.0227 74.2443 34.0227C79.0398 34.0227 81.5398 38.5227 81.5398 44.6136C81.5398 50.7045 79.0398 55.1818 74.2443 55.1818ZM97.6761 27.0909V63.5682C97.6761 66.2045 96.5625 67.5227 93.4489 67.5227C93.0398 67.5227 92.6761 67.5227 92.1761 67.4773V75.0455C92.8807 75.0682 93.4489 75.0909 94.1307 75.0909C102.358 75.0909 107.358 71.8182 107.358 63.7273V27.0909H97.6761ZM102.494 22.5909C105.381 22.5909 107.744 20.3864 107.744 17.6818C107.744 15 105.381 12.7955 102.494 12.7955C99.6307 12.7955 97.267 15 97.267 17.6818C97.267 20.3864 99.6307 22.5909 102.494 22.5909ZM125.068 62.6591C130.227 62.6591 133.568 60.4091 135.273 57.1591H135.545V62H144.727V38.4545C144.727 30.1364 137.682 26.6364 129.909 26.6364C121.545 26.6364 116.045 30.6364 114.705 37L123.659 37.7273C124.318 35.4091 126.386 33.7045 129.864 33.7045C133.159 33.7045 135.045 35.3636 135.045 38.2273V38.3636C135.045 40.6136 132.659 40.9091 126.591 41.5C119.682 42.1364 113.477 44.4545 113.477 52.25C113.477 59.1591 118.409 62.6591 125.068 62.6591ZM127.841 55.9773C124.864 55.9773 122.727 54.5909 122.727 51.9318C122.727 49.2045 124.977 47.8636 128.386 47.3864C130.5 47.0909 133.955 46.5909 135.114 45.8182V49.5227C135.114 53.1818 132.091 55.9773 127.841 55.9773ZM152.239 62H161.92V41.0455C161.92 37.1818 164.375 34.6136 167.602 34.6136C170.784 34.6136 172.92 36.7955 172.92 40.2273V62H182.307V40.6818C182.307 37.0682 184.375 34.6136 187.898 34.6136C190.989 34.6136 193.307 36.5455 193.307 40.4318V62H202.966V38.5227C202.966 30.9545 198.466 26.6364 191.966 26.6364C186.852 26.6364 182.875 29.25 181.443 33.25H181.08C179.966 29.2045 176.398 26.6364 171.602 26.6364C166.898 26.6364 163.33 29.1364 161.875 33.25H161.466V27.0909H152.239V62ZM226.523 62.6818C235.159 62.6818 240.977 58.4773 242.341 52L233.386 51.4091C232.409 54.0682 229.909 55.4545 226.682 55.4545C221.841 55.4545 218.773 52.25 218.773 47.0455V47.0227H242.545V44.3636C242.545 32.5 235.364 26.6364 226.136 26.6364C215.864 26.6364 209.205 33.9318 209.205 44.7045C209.205 55.7727 215.773 62.6818 226.523 62.6818ZM218.773 41.0227C218.977 37.0455 222 33.8636 226.295 33.8636C230.5 33.8636 233.409 36.8636 233.432 41.0227H218.773ZM258.545 41.8182C258.568 37.3182 261.25 34.6818 265.159 34.6818C269.045 34.6818 271.386 37.2273 271.364 41.5V62H281.045V39.7727C281.045 31.6364 276.273 26.6364 269 26.6364C263.818 26.6364 260.068 29.1818 258.5 33.25H258.091V27.0909H248.864V62H258.545V41.8182ZM301.54 62.5682C307.176 62.5682 310.108 59.3182 311.449 56.4091H311.858V62H321.403V15.4545H311.744V32.9545H311.449C310.153 30.1136 307.358 26.6364 301.517 26.6364C293.858 26.6364 287.381 32.5909 287.381 44.5909C287.381 56.2727 293.585 62.5682 301.54 62.5682ZM304.608 54.8636C299.858 54.8636 297.267 50.6364 297.267 44.5455C297.267 38.5 299.812 34.3409 304.608 34.3409C309.312 34.3409 311.949 38.3182 311.949 44.5455C311.949 50.7727 309.267 54.8636 304.608 54.8636Z" fill="#0B1417"/>
<path d="M344 67.25C341.158 64.8259 338.524 62.1684 336.125 59.3052C332.525 55.0055 328.25 48.602 328.25 42.5C328.247 36.127 332.085 30.3801 337.972 27.9411C343.86 25.5022 350.638 26.8518 355.142 31.3602C358.104 34.3091 359.763 38.3204 359.75 42.5C359.75 48.602 355.475 55.0055 351.875 59.3052C349.476 62.1684 346.842 64.8259 344 67.25ZM344 35.75C341.588 35.75 339.36 37.0365 338.154 39.125C336.949 41.2134 336.949 43.7865 338.154 45.875C339.36 47.9635 341.588 49.25 344 49.25C347.728 49.25 350.75 46.2279 350.75 42.5C350.75 38.7721 347.728 35.75 344 35.75Z" fill="#9EC2B1"/>
</svg>
