<svg width="341" height="77" viewBox="0 0 341 77" fill="none" xmlns="http://www.w3.org/2000/svg">
<path d="M3.86364 62H13.5455V41.0455C13.5455 37.1818 16 34.6136 19.2273 34.6136C22.4091 34.6136 24.5455 36.7955 24.5455 40.2273V62H33.9318V40.6818C33.9318 37.0682 36 34.6136 39.5227 34.6136C42.6136 34.6136 44.9318 36.5455 44.9318 40.4318V62H54.5909V38.5227C54.5909 30.9545 50.0909 26.6364 43.5909 26.6364C38.4773 26.6364 34.5 29.25 33.0682 33.25H32.7045C31.5909 29.2045 28.0227 26.6364 23.2273 26.6364C18.5227 26.6364 14.9545 29.1364 13.5 33.25H13.0909V27.0909H3.86364V62ZM78.1477 62.6818C86.7841 62.6818 92.6023 58.4773 93.9659 52L85.0114 51.4091C84.0341 54.0682 81.5341 55.4545 78.3068 55.4545C73.4659 55.4545 70.3977 52.25 70.3977 47.0455V47.0227H94.1705V44.3636C94.1705 32.5 86.9886 26.6364 77.7614 26.6364C67.4886 26.6364 60.8295 33.9318 60.8295 44.7045C60.8295 55.7727 67.3977 62.6818 78.1477 62.6818ZM70.3977 41.0227C70.6023 37.0455 73.625 33.8636 77.9205 33.8636C82.125 33.8636 85.0341 36.8636 85.0568 41.0227H70.3977ZM110.17 41.8182C110.193 37.3182 112.875 34.6818 116.784 34.6818C120.67 34.6818 123.011 37.2273 122.989 41.5V62H132.67V39.7727C132.67 31.6364 127.898 26.6364 120.625 26.6364C115.443 26.6364 111.693 29.1818 110.125 33.25H109.716V27.0909H100.489V62H110.17V41.8182ZM153.165 62.5682C158.801 62.5682 161.733 59.3182 163.074 56.4091H163.483V62H173.028V15.4545H163.369V32.9545H163.074C161.778 30.1136 158.983 26.6364 153.142 26.6364C145.483 26.6364 139.006 32.5909 139.006 44.5909C139.006 56.2727 145.21 62.5682 153.165 62.5682ZM156.233 54.8636C151.483 54.8636 148.892 50.6364 148.892 44.5455C148.892 38.5 151.438 34.3409 156.233 34.3409C160.938 34.3409 163.574 38.3182 163.574 44.5455C163.574 50.7727 160.892 54.8636 156.233 54.8636ZM239.659 37.0455C238.795 30.6136 233.614 26.6364 224.795 26.6364C215.864 26.6364 209.977 30.7727 210 37.5C209.977 42.7273 213.273 46.1136 220.091 47.4773L226.136 48.6818C229.182 49.2955 230.568 50.4091 230.614 52.1591C230.568 54.2273 228.318 55.7045 224.932 55.7045C221.477 55.7045 219.182 54.2273 218.591 51.3864L209.068 51.8864C209.977 58.5682 215.659 62.6818 224.909 62.6818C233.955 62.6818 240.432 58.0682 240.455 51.1818C240.432 46.1364 237.136 43.1136 230.364 41.7273L224.045 40.4545C220.795 39.75 219.591 38.6364 219.614 36.9545C219.591 34.8636 221.955 33.5 224.955 33.5C228.318 33.5 230.318 35.3409 230.795 37.5909L239.659 37.0455ZM265.119 27.0909H258.551V18.7273H248.869V27.0909H244.097V34.3636H248.869V52.5455C248.824 59.3864 253.483 62.7727 260.506 62.4773C263.006 62.3864 264.778 61.8864 265.756 61.5682L264.233 54.3636C263.756 54.4545 262.733 54.6818 261.824 54.6818C259.892 54.6818 258.551 53.9545 258.551 51.2727V34.3636H265.119V27.0909ZM281.381 62.6591C286.54 62.6591 289.881 60.4091 291.585 57.1591H291.858V62H301.04V38.4545C301.04 30.1364 293.994 26.6364 286.222 26.6364C277.858 26.6364 272.358 30.6364 271.017 37L279.972 37.7273C280.631 35.4091 282.699 33.7045 286.176 33.7045C289.472 33.7045 291.358 35.3636 291.358 38.2273V38.3636C291.358 40.6136 288.972 40.9091 282.903 41.5C275.994 42.1364 269.79 44.4545 269.79 52.25C269.79 59.1591 274.722 62.6591 281.381 62.6591ZM284.153 55.9773C281.176 55.9773 279.04 54.5909 279.04 51.9318C279.04 49.2045 281.29 47.8636 284.699 47.3864C286.812 47.0909 290.267 46.5909 291.426 45.8182V49.5227C291.426 53.1818 288.403 55.9773 284.153 55.9773ZM313.278 75.0909C320.483 75.0909 324.301 71.4091 326.278 65.7727L339.847 27.1364L329.597 27.0909L322.301 52.7273H321.938L314.71 27.0909H304.528L317.051 63L316.483 64.4773C315.21 67.75 312.778 67.9091 309.369 66.8636L307.188 74.0909C308.574 74.6818 310.824 75.0909 313.278 75.0909Z" fill="#0B1417"/>
<path d="M192 62C189.474 59.8452 187.132 57.483 185 54.938C181.8 51.116 178 45.424 178 40C177.997 34.3351 181.408 29.2268 186.642 27.0588C191.876 24.8908 197.9 26.0905 201.904 30.098C204.537 32.7192 206.012 36.2848 206 40C206 45.424 202.2 51.116 199 54.938C196.868 57.483 194.526 59.8452 192 62ZM192 34C189.856 34 187.876 35.1436 186.804 37C185.732 38.8564 185.732 41.1436 186.804 43C187.876 44.8564 189.856 46 192 46C195.314 46 198 43.3137 198 40C198 36.6863 195.314 34 192 34Z" fill="#9EC2B1"/>
</svg>
